<svg width="67" height="67" viewBox="0 0 67 67" fill="none" xmlns="http://www.w3.org/2000/svg">
<g id="Group 427320790">
<circle id="Ellipse 32" cx="33.5" cy="33.5" r="33.5" fill="#D9D9D9"/>
<path id="Vector" d="M33.4325 24.0024C33.191 24.0176 32.9613 24.1181 32.7803 24.2878L18.3858 37.984C18.2749 38.0824 18.1839 38.2032 18.1181 38.3395C18.0523 38.4757 18.0131 38.6246 18.0027 38.7772C17.9924 38.9298 18.0112 39.083 18.058 39.2277C18.1048 39.3725 18.1787 39.5058 18.2752 39.6198C18.3717 39.7338 18.4889 39.8261 18.6198 39.8913C18.7507 39.9564 18.8927 39.9931 19.0373 39.9991C19.1819 40.0051 19.3262 39.9803 19.4615 39.9262C19.5969 39.8721 19.7205 39.7898 19.8252 39.6842L33.5 26.6775L47.1748 39.6842C47.2794 39.7898 47.4031 39.8721 47.5385 39.9262C47.6738 39.9803 47.8181 40.0051 47.9627 39.9991C48.1073 39.9931 48.2492 39.9564 48.3802 39.8913C48.5111 39.8261 48.6283 39.7338 48.7248 39.6198C48.8213 39.5058 48.8952 39.3725 48.942 39.2277C48.9888 39.083 49.0076 38.9298 48.9973 38.7772C48.9869 38.6246 48.9477 38.4757 48.8819 38.3395C48.8161 38.2032 48.7251 38.0824 48.6142 37.984L34.2197 24.2878C34.1129 24.1875 33.9883 24.1107 33.8532 24.0617C33.7181 24.0127 33.5751 23.9926 33.4325 24.0024Z" fill="#002C28" stroke="#002C28" stroke-width="2"/>
</g>
</svg>
