<svg width="54" height="35" viewBox="0 0 54 35" fill="none" xmlns="http://www.w3.org/2000/svg">
<g id="Group">
<g id="Group_2">
<path id="Vector" d="M0.0209999 23.003C0.0159999 23.141 0 23.276 0 23.416C0 23.463 0.00599997 23.508 0.00699997 23.554C0.00599997 23.646 0 23.737 0 23.829L0.0200005 23.815C0.232 29.981 5.285 34.918 11.502 34.918C17.854 34.918 23.004 29.769 23.004 23.416C23.004 17.62 18.712 12.839 13.135 12.044C14.521 7.449 18.78 4.106 23.83 4.106V0C10.937 0.001 0.457 10.217 0.0209999 23.003Z" fill="#d9d9d9"/>
<path id="Vector_2" d="M29.8569 23.003C29.8519 23.141 29.8359 23.276 29.8359 23.416C29.8359 23.463 29.8429 23.508 29.8429 23.554C29.8419 23.646 29.8359 23.737 29.8359 23.829L29.8569 23.815C30.0689 29.981 35.1219 34.918 41.3379 34.918C47.6909 34.918 52.8399 29.769 52.8399 23.416C52.8399 17.62 48.5479 12.839 42.9709 12.044C44.3569 7.449 48.6159 4.106 53.6649 4.106V0C40.7719 0.001 30.2939 10.217 29.8569 23.003Z" fill="#d9d9d9"/>
</g>
</g>
</svg>
