<svg width="120" height="74" viewBox="0 0 120 74" fill="none" xmlns="http://www.w3.org/2000/svg">
<g id="Group 427320753">
<path id="Vector" d="M114.254 27.1548H92.2782C91.5497 27.1548 90.851 27.4429 90.3358 27.9557C89.8207 28.4685 89.5312 29.164 89.5312 29.8892V68.1711C89.5312 68.8963 89.8207 69.5918 90.3358 70.1046C90.851 70.6174 91.5497 70.9055 92.2782 70.9055H114.254C114.982 70.9055 115.681 70.6174 116.196 70.1046C116.711 69.5918 117.001 68.8963 117.001 68.1711V29.8892C117.001 29.164 116.711 28.4685 116.196 27.9557C115.681 27.4429 114.982 27.1548 114.254 27.1548Z" stroke="#69BDFE" stroke-width="5" stroke-linecap="round" stroke-linejoin="round"/>
<path id="Vector_2" d="M99.6211 32.7988H105.115" stroke="#69BDFE" stroke-width="3" stroke-linecap="round" stroke-linejoin="round"/>
<path id="Vector_3" d="M102.369 62.7002V62.7298" stroke="#69BDFE" stroke-width="4" stroke-linecap="round" stroke-linejoin="round"/>
<g id="desktop">
<g id="desktop_2">
<g id="Group 427320780">
<path id="Vector_4" d="M17.9609 70.1895H61.4971" stroke="#69BDFE" stroke-width="5" stroke-linecap="round" stroke-linejoin="round"/>
<path id="Vector_5" d="M74.7499 3.90527H8.16176C7.05799 3.90527 5.99943 4.34175 5.21895 5.11867C4.43847 5.8956 4 6.94933 4 8.04807V49.476C4 50.5747 4.43847 51.6285 5.21895 52.4054C5.99943 53.1823 7.05799 53.6188 8.16176 53.6188H74.7499C75.8537 53.6188 76.9122 53.1823 77.6927 52.4054C78.4732 51.6285 78.9117 50.5747 78.9117 49.476V8.04807C78.9117 6.94933 78.4732 5.8956 77.6927 5.11867C76.9122 4.34175 75.8537 3.90527 74.7499 3.90527Z" stroke="#69BDFE" stroke-width="7" stroke-linecap="round" stroke-linejoin="round"/>
<path id="Vector_6" d="M28.6992 53.959L28.6992 68.8872" stroke="#69BDFE" stroke-width="7" stroke-linecap="round" stroke-linejoin="round"/>
<path id="Vector_7" d="M54.2812 53.959L54.2812 68.8872" stroke="#69BDFE" stroke-width="7" stroke-linecap="round" stroke-linejoin="round"/>
</g>
</g>
</g>
</g>
</svg>
