<svg width="32" height="32" viewBox="0 0 32 32" fill="none" xmlns="http://www.w3.org/2000/svg">
<g id="Frame">
<path id="Vector" d="M21.332 5.33301H10.6654C9.25088 5.33301 7.89432 5.89491 6.89413 6.8951C5.89393 7.8953 5.33203 9.25185 5.33203 10.6663V21.333C5.33203 22.7475 5.89393 24.104 6.89413 25.1042C7.89432 26.1044 9.25088 26.6663 10.6654 26.6663H21.332C22.7465 26.6663 24.1031 26.1044 25.1033 25.1042C26.1035 24.104 26.6654 22.7475 26.6654 21.333V10.6663C26.6654 9.25185 26.1035 7.8953 25.1033 6.8951C24.1031 5.89491 22.7465 5.33301 21.332 5.33301Z" stroke="white" stroke-width="2" stroke-linecap="round" stroke-linejoin="round"/>
<path id="Vector_2" d="M16 20C17.0609 20 18.0783 19.5786 18.8284 18.8284C19.5786 18.0783 20 17.0609 20 16C20 14.9391 19.5786 13.9217 18.8284 13.1716C18.0783 12.4214 17.0609 12 16 12C14.9391 12 13.9217 12.4214 13.1716 13.1716C12.4214 13.9217 12 14.9391 12 16C12 17.0609 12.4214 18.0783 13.1716 18.8284C13.9217 19.5786 14.9391 20 16 20Z" stroke="white" stroke-width="2" stroke-linecap="round" stroke-linejoin="round"/>
</g>
</svg>
