<svg width="32" height="32" viewBox="0 0 32 32" fill="none" xmlns="http://www.w3.org/2000/svg">
<g id="Frame">
<path id="Vector" d="M4 27.999L6.2 22.9323C4.51688 20.5431 3.76356 17.6217 4.08139 14.7165C4.39923 11.8112 5.76638 9.12183 7.92628 7.15301C10.0862 5.18418 12.8903 4.07127 15.8125 4.02311C18.7347 3.97496 21.574 4.99489 23.7976 6.89148C26.0212 8.78807 27.4762 11.431 27.8896 14.3241C28.303 17.2173 27.6463 20.1619 26.0428 22.6053C24.4393 25.0488 21.9993 26.823 19.1805 27.5951C16.3618 28.3672 13.3582 28.0842 10.7333 26.799L4 27.999Z" stroke="white" stroke-width="2" stroke-linecap="round" stroke-linejoin="round"/>
<path id="Vector_2" d="M12 13.333C12 13.5098 12.0702 13.6794 12.1953 13.8044C12.3203 13.9294 12.4899 13.9997 12.6667 13.9997C12.8435 13.9997 13.013 13.9294 13.1381 13.8044C13.2631 13.6794 13.3333 13.5098 13.3333 13.333V11.9997C13.3333 11.8229 13.2631 11.6533 13.1381 11.5283C13.013 11.4032 12.8435 11.333 12.6667 11.333C12.4899 11.333 12.3203 11.4032 12.1953 11.5283C12.0702 11.6533 12 11.8229 12 11.9997V13.333ZM12 13.333C12 15.1011 12.7024 16.7968 13.9526 18.0471C15.2029 19.2973 16.8986 19.9997 18.6667 19.9997M18.6667 19.9997H20C20.1768 19.9997 20.3464 19.9294 20.4714 19.8044C20.5964 19.6794 20.6667 19.5098 20.6667 19.333C20.6667 19.1562 20.5964 18.9866 20.4714 18.8616C20.3464 18.7366 20.1768 18.6663 20 18.6663H18.6667C18.4899 18.6663 18.3203 18.7366 18.1953 18.8616C18.0702 18.9866 18 19.1562 18 19.333C18 19.5098 18.0702 19.6794 18.1953 19.8044C18.3203 19.9294 18.4899 19.9997 18.6667 19.9997Z" stroke="white" stroke-width="2" stroke-linecap="round" stroke-linejoin="round"/>
</g>
</svg>
