<svg width="32" height="32" viewBox="0 0 32 32" fill="none" xmlns="http://www.w3.org/2000/svg">
<g id="Frame">
<path id="Vector" d="M22.6667 6.66699H9.33333C7.91885 6.66699 6.56229 7.2289 5.5621 8.22909C4.5619 9.22928 4 10.5858 4 12.0003V20.0003C4 21.4148 4.5619 22.7714 5.5621 23.7716C6.56229 24.7718 7.91885 25.3337 9.33333 25.3337H22.6667C24.0812 25.3337 25.4377 24.7718 26.4379 23.7716C27.4381 22.7714 28 21.4148 28 20.0003V12.0003C28 10.5858 27.4381 9.22928 26.4379 8.22909C25.4377 7.2289 24.0812 6.66699 22.6667 6.66699Z" stroke="white" stroke-width="2" stroke-linecap="round" stroke-linejoin="round"/>
<path id="Vector_2" d="M13.332 12L19.9987 16L13.332 20V12Z" stroke="white" stroke-width="2" stroke-linecap="round" stroke-linejoin="round"/>
</g>
</svg>
